<svg width="100" height="40" viewBox="0 0 100 40" fill="none" xmlns="http://www.w3.org/2000/svg">
  <path d="M50.5007 15.9995C50.5007 13.8745 52.2507 12.3745 55.2507 12.3745C57.6257 12.3745 59.5007 13.3745 60.7507 14.8745L58.7507 16.6245C57.8757 15.6245 56.6257 15.1245 55.2507 15.1245C53.7507 15.1245 52.7507 15.7495 52.7507 16.6245C52.7507 17.8745 54.5007 18.3745 56.6257 18.9995C59.5007 19.8745 61.8757 20.7495 61.8757 23.6245C61.8757 26.1245 59.7507 27.6245 56.5007 27.6245C53.8757 27.6245 51.6257 26.4995 50.3757 24.7495L52.3757 23.1245C53.2507 24.3745 54.8757 24.9995 56.5007 24.9995C58.1257 24.9995 59.6257 24.3745 59.6257 23.2495C59.6257 21.8745 57.8757 21.3745 55.7507 20.7495C52.8757 19.8745 50.5007 18.8745 50.5007 15.9995Z" fill="#6772E5"/>
  <path d="M67.75 18.375C67.75 16.5 68.75 15.125 70.5 15.125C72.25 15.125 73.25 16.5 73.25 18.5V27.375H75.5V18.25C75.5 15.125 73.75 12.625 70.5 12.625C69 12.625 67.75 13.25 67 14.25V13H64.75V27.375H67V18.375H67.75Z" fill="#6772E5"/>
  <path d="M77.625 20.1878C77.625 15.9378 80.375 12.5628 84.25 12.5628C88.125 12.5628 90.75 15.9378 90.75 20.1878C90.75 24.4378 88 27.8128 84.125 27.8128C80.25 27.8128 77.625 24.4378 77.625 20.1878ZM88.5 20.1878C88.5 17.0628 86.875 14.8128 84.125 14.8128C81.375 14.8128 79.75 17.0628 79.75 20.1878C79.75 23.3128 81.375 25.5628 84.125 25.5628C86.875 25.5628 88.5 23.3128 88.5 20.1878Z" fill="#6772E5"/>
  <path d="M92.75 27.375H95V13H92.75V27.375ZM92.75 10.5H95V8H92.75V10.5Z" fill="#6772E5"/>
  <path d="M42.125 19.0627L36.625 13.5627L31.125 19.0627L36.625 24.5627L42.125 19.0627Z" fill="#6772E5"/>
  <path d="M30.125 13.0627H24.625L19.125 18.5627L24.625 24.0627H30.125L24.625 18.5627L30.125 13.0627Z" fill="#6772E5"/>
  <path d="M13.625 13.0627H8.125L13.625 18.5627L8.125 24.0627H13.625L19.125 18.5627L13.625 13.0627Z" fill="#6772E5"/>
</svg>
